<?xml version="1.0" encoding="UTF-8"?><svg id="Layer_1" xmlns="http://www.w3.org/2000/svg" viewBox="0 0 248.33333 37.03109"><defs><style>.cls-1{fill:#f76902;}</style></defs><rect x="76.42174" y="6.03068" width=".38184" height="24.96973"/><path class="cls-1" d="M39.57169,8.69993c.42994-1.12486,1.84975-1.12486,2.98962-1.12486h.21195v-1.55077s-4.4437.09801-5.80283.09801c-1.4002,0-5.55276-.09801-5.55276-.09801v1.55077h.21201c1.13981,0,2.55968,0,2.98858,1.12291.35695.96387.35695,3.69052.35695,4.85438v9.90674c0,1.1649,0,3.89057-.35591,4.85341-.42994,1.12388-1.84981,1.12388-2.98962,1.12388h-.21201v1.55181c-.0001-.00388,3.5923-.15299,5.55912-.15299,2.26399,0,5.79648.153,5.79648.153v-1.55181h-.21195c-1.13987,0-2.55968,0-2.98864-1.12187-.35695-.96485-.35695-3.69052-.35695-4.85542v-9.90674c0-1.16386,0-3.89051.35597-4.85243Z"/><path class="cls-1" d="M46.14387,6.04891v6.47521h1.53979l.00702-.20402c.14097-4.21347,1.75277-4.39143,5.38435-4.39143.12498,0,.24997,0,.37294-.00104.9029-.00598,1.75479-.01098,2.08971.32198.11199.11101.16703.26498.16703.46894v17.02189c0,2.52569-.35396,3.56957-3.91053,3.71658l-.20298.00799v1.54278s4.14644-.15196,6.54562-.15196c1.83163,0,5.92079.15196,5.92079.15196v-1.54278l-.20292-.00799c-3.55761-.14702-3.91053-1.19089-3.91053-3.71658V8.71856c0-.17497.05297-.31295.16294-.42195.40998-.40297,1.53985-.38594,2.4477-.37294.17198.00299.34096.005.50098.005,3.55156,0,4.69638,1.02783,4.90339,4.39747l.01196.19797h1.52886v-6.47521s-8.96243.05844-11.67806.05844-11.67806-.05844-11.67806-.05844Z"/><path class="cls-1" d="M27.97229,29.43739c-1.7908-.28097-2.32869-.48395-3.50458-1.8448l-7.3711-8.46197c3.88153-.50593,6.27425-3.07262,6.27425-6.77816,0-2.41266-.93189-4.15347-2.76766-5.17337-1.3968-.7759-3.33656-1.15281-5.93524-1.15281-.77792.01898-2.64867.08344-4.70941.08344-2.13715,0-6.57722-.08643-6.57722-.08643v1.55078h.30794c1.17685-.00701,2.50171-.00201,2.85268,1.11589.32296.96687.32296,3.69352.32296,4.58941v10.17874c0,1.12375-.00067,2.83011-.14966,3.99725-.04402.34489-.10039.64494-.17427.86615-.36,1.11389-1.79482,1.11389-2.94867,1.11389h-.21097v1.55077s3.45605-.15195,5.76631-.15195c1.98614,0,5.44042.14809,5.44031.15196v-1.55077h-.30696c-1.15788.005-2.4707.00201-2.85365-1.1159-.07377-.22105-.13001-.52156-.17394-.86414-.14836-1.15732-.14903-2.81874-.14903-3.72525v-4.16147c1.37886.01196,1.49884.15696,2.20872,1.01385.13103.15799.28097.33797.45398.53796l6.15219,7.63401,1.8088,2.23171s1.98335-.08368,2.94727-.08368c1.40155,0,3.47595.08673,3.47595.08673v-1.52386l-.17899-.02795ZM11.10437,17.87278s-.00098-9.01384-.00201-9.06688c-.00598-.35994-.01599-.85188.28396-.99084.20799-.09203,2.21378-.01904,2.32375-.01904,3.16159,0,4.97637,1.85078,4.97637,5.07542,0,2.35066-.62492,3.6995-2.02575,4.37544-1.3058.63091-5.55632.6259-5.55632.6259Z"/><path d="M83.70654,16.69775h2.94092l4.76074,7.98145c.46045.78027,1.00049,2,1.00049,2h.04004s-.08008-1.47949-.08008-2.48047v-7.50098h2.86035v14.30273h-2.80029l-4.88135-7.90137c-.45996-.76074-1.02002-1.98047-1.02002-1.98047h-.04004s.08008,1.5.08008,2.5v7.38184h-2.86084v-14.30273Z"/><path d="M96.70605,25.85986c0-3.04102,2.06055-5.40137,5.06152-5.40137,3.30029,0,5.06104,2.52051,5.06104,6.18066h-7.44189c.2002,1.58105,1.08057,2.56055,2.62061,2.56055,1.06006,0,1.68018-.47949,1.98047-1.25977h2.68066c-.38037,1.82031-2.00049,3.36035-4.64111,3.36035-3.40088,0-5.32129-2.37988-5.32129-5.44043ZM99.42676,24.75928h4.56104c-.08008-1.30078-.93994-2.2002-2.18066-2.2002-1.43994,0-2.14014.85938-2.38037,2.2002Z"/><path d="M107.08643,20.73877h2.70068l1.24023,4.76074c.21973.83984.45996,1.91992.45996,1.91992h.04004s.22021-1.09961.43994-1.94043l1.28027-4.74023h2.3208l1.34033,4.74023c.21973.86035.47998,1.94043.47998,1.94043h.04004s.23975-1.08008.45996-1.91992l1.30029-4.76074h2.64062l-3.06055,10.26172h-2.48096l-1.35986-5.04102c-.22021-.82031-.46045-1.78027-.46045-1.78027h-.04004s-.25977.95996-.47998,1.78027l-1.40039,5.04102h-2.46045l-3.00049-10.26172Z"/><path d="M126.36621,16.69775h4.08105l2.02051,7.18164c.5,1.7998.8999,3.86035.8999,3.86035h.04004s.38037-2.06055.88037-3.86035l2.02051-7.18164h4.14062v14.30273h-2.7002v-8.20215c0-1.16016.11963-2.95996.11963-2.95996h-.04004s-.31982,1.67969-.62012,2.7207l-2.46045,8.44141h-2.78027l-2.40088-8.44141c-.2998-1.04102-.62012-2.7207-.62012-2.7207h-.04004s.12012,1.7998.12012,2.95996v8.20215h-2.66064v-14.30273Z"/><path d="M141.92578,25.85986c0-3.04102,2.06055-5.40137,5.06152-5.40137,3.30029,0,5.06104,2.52051,5.06104,6.18066h-7.44189c.2002,1.58105,1.08057,2.56055,2.62061,2.56055,1.06006,0,1.68018-.47949,1.98047-1.25977h2.68066c-.38037,1.82031-2.00049,3.36035-4.64111,3.36035-3.40088,0-5.32129-2.37988-5.32129-5.44043ZM144.64648,24.75928h4.56104c-.08008-1.30078-.93994-2.2002-2.18066-2.2002-1.43994,0-2.14014.85938-2.38037,2.2002Z"/><path d="M152.80566,25.87939c0-3.20117,1.8208-5.4209,4.38135-5.4209,1.43994,0,2.34033.66016,2.90039,1.52051h.06006v-5.28125h2.7207v14.30273h-2.62061v-1.33984h-.04004c-.6001.97949-1.62061,1.63965-3.06055,1.63965-2.58057,0-4.34131-2.10059-4.34131-5.4209ZM160.20752,25.93896c0-1.95996-.64014-3.28027-2.38037-3.28027-1.50049,0-2.26074,1.32031-2.26074,3.2207,0,1.98047.78027,3.14062,2.18066,3.14062,1.62012,0,2.46045-1.2002,2.46045-3.08105Z"/><path d="M164.62598,16.69775h2.7207v2.44043h-2.7207v-2.44043ZM164.62598,20.73877h2.7207v10.26172h-2.7207v-10.26172Z"/><path d="M175.24707,29.85986h-.04004c-.51953.78027-1.25977,1.38086-3.02051,1.38086-2.10059,0-3.58105-1.10059-3.58105-3.14062,0-2.26074,1.84082-2.98047,4.12109-3.30078,1.7002-.24023,2.48047-.37988,2.48047-1.16016,0-.74023-.58008-1.2207-1.71973-1.2207-1.28027,0-1.90039.45996-1.98047,1.44043h-2.4209c.08008-1.80078,1.41992-3.38086,4.4209-3.38086,3.08105,0,4.32129,1.38086,4.32129,3.78125v5.2207c0,.78027.12012,1.24023.35938,1.4209v.09961h-2.62012c-.16016-.2002-.25977-.67969-.32031-1.14062ZM175.26758,27.37939v-1.54004c-.48047.28027-1.2207.44043-1.90039.60059-1.4209.31934-2.12109.63965-2.12109,1.59961,0,.96094.64062,1.30078,1.60059,1.30078,1.56055,0,2.4209-.95996,2.4209-1.96094Z"/><path d="M183.12598,16.69775h5.58105c3.82031,0,6.28125,3.08008,6.28125,7.30078,0,2.32129-.78027,4.36133-2.28027,5.62207-1.06055.87988-2.44043,1.37988-4.24121,1.37988h-5.34082v-14.30273ZM188.2666,28.49951c2.7207,0,3.78125-1.66016,3.78125-4.50098,0-2.83984-1.24023-4.82031-3.70117-4.82031h-2.32031v9.32129h2.24023Z"/><path d="M195.8457,25.85986c0-3.04102,2.06055-5.40137,5.06152-5.40137,3.30078,0,5.06055,2.52051,5.06055,6.18066h-7.44141c.2002,1.58105,1.08008,2.56055,2.62109,2.56055,1.05957,0,1.67969-.47949,1.98047-1.25977h2.67969c-.37988,1.82031-2,3.36035-4.64062,3.36035-3.40039,0-5.32129-2.37988-5.32129-5.44043ZM198.56641,24.75928h4.56152c-.08008-1.30078-.94043-2.2002-2.18066-2.2002-1.44043,0-2.14062.85938-2.38086,2.2002Z"/><path d="M206.58496,27.68018h2.52051c.17969,1.17969,1.02051,1.7002,2.24023,1.7002,1.2002,0,1.88086-.45996,1.88086-1.18066,0-.98047-1.30078-1.08008-2.70117-1.36035-1.83984-.35938-3.64062-.86035-3.64062-3.10059,0-2.2207,1.84082-3.28027,4.18066-3.28027,2.70117,0,4.20117,1.33984,4.40137,3.40039h-2.46094c-.12012-1.10059-.82031-1.5-1.98047-1.5-1.05957,0-1.75977.39941-1.75977,1.13965,0,.88086,1.36035.96094,2.82031,1.26074,1.7207.36035,3.62109.83984,3.62109,3.24023,0,2.06055-1.76074,3.30078-4.32129,3.30078-2.98047,0-4.64062-1.44043-4.80078-3.62012Z"/><path d="M216.9248,16.69775h2.7207v2.44043h-2.7207v-2.44043ZM216.9248,20.73877h2.7207v10.26172h-2.7207v-10.26172Z"/><path d="M221.125,31.30029h2.7002c.21973.64062.7998,1.14062,2.06055,1.14062,1.54004,0,2.28027-.74023,2.28027-2.14062v-1.12012h-.05957c-.60059.67969-1.38086,1.2002-2.68066,1.2002-2.28125,0-4.52148-1.80078-4.52148-4.90137,0-3.06055,1.84082-5.02051,4.44141-5.02051,1.28027,0,2.21973.5,2.84082,1.36035h.03906v-1.08008h2.62109v9.48145c0,1.44043-.45996,2.4209-1.2207,3.12109-.85938.7998-2.17969,1.16016-3.7002,1.16016-2.80078,0-4.52148-1.2002-4.80078-3.20117ZM228.30566,25.41943c0-1.5-.7998-2.78027-2.44043-2.78027-1.37988,0-2.2998,1.08008-2.2998,2.7998,0,1.74023.91992,2.76074,2.32031,2.76074,1.71973,0,2.41992-1.25977,2.41992-2.78027Z"/><path d="M235.26562,22.13818h.05957c.7002-1.09961,1.64062-1.67969,3.04102-1.67969,2.12012,0,3.54102,1.59961,3.54102,3.84082v6.70117h-2.7207v-6.30176c0-1.09961-.64062-1.87988-1.78027-1.87988-1.2002,0-2.08105.95996-2.08105,2.36035v5.82129h-2.7207v-10.26172h2.66113v1.39941Z"/><path d="M83.7124,6.03662h2.34082c1.93555,0,2.854,1.31445,2.854,3.24023,0,1.92676-.98145,3.19629-2.91699,3.19629h-2.27783v-6.43652ZM85.96338,11.76221c1.51221,0,2.11572-.97266,2.11572-2.48535,0-1.51172-.54053-2.53809-2.05273-2.53809h-1.50342v5.02344h1.44043Z"/><path d="M92.72217,12.47314v-.63965h-.01807c-.33301.4502-.729.74805-1.4043.74805-.9541,0-1.56641-.57617-1.56641-1.54004v-3.22266h.729v3.20508c0,.60254.38721.9541,1.04443.9541.73828,0,1.21533-.55859,1.21533-1.29688v-2.8623h.729v4.6543h-.729Z"/><path d="M95.1875,11.86084h-.01758v.6123h-.72949v-6.43652h.72949v2.44824h.01758c.35107-.47754.81934-.77441,1.49463-.77441,1.1792,0,1.98047.90039,1.98047,2.44922,0,1.49414-.74707,2.44824-2.00732,2.44824-.63037,0-1.08936-.22461-1.46777-.74707ZM97.91553,10.16846c0-1.04395-.42334-1.83691-1.30518-1.83691-1.01758,0-1.48584.82812-1.48584,1.83691,0,1.04395.48633,1.82715,1.47656,1.82715.89111,0,1.31445-.77344,1.31445-1.82715Z"/><path d="M102.24414,11.82471h-.00928c-.27881.36035-.75586.73828-1.54834.73828-.88232,0-1.5752-.41406-1.5752-1.2959,0-1.09863.86426-1.32324,2.02539-1.50391.65723-.09863,1.11621-.16211,1.11621-.66602,0-.52246-.37793-.81934-1.04443-.81934-.75586,0-1.13428.32422-1.16113,1.02637h-.70215c.02686-.90039.62109-1.5752,1.85449-1.5752.99023,0,1.71973.36914,1.71973,1.47656v2.21387c0,.37891.08984.58594.49512.49512h.02686v.53125c-.08984.03613-.20703.07227-.396.07227-.47705,0-.72949-.21582-.80127-.69336ZM102.26221,10.75342v-.79199c-.24316.15332-.6665.27051-1.0625.3418-.729.13574-1.31445.26172-1.31445.94531,0,.62109.48633.75684.96338.75684.97217,0,1.41357-.71191,1.41357-1.25195Z"/><path d="M103.97998,6.03662h.729v.89941h-.729v-.89941ZM103.97998,7.81885h.729v4.6543h-.729v-4.6543Z"/></svg>