<?xml version="1.0" encoding="UTF-8"?><svg id="Layer_2" xmlns="http://www.w3.org/2000/svg" viewBox="0 0 1032.22 204.34"><defs><style>.cls-1{fill:#ec6a15;}</style></defs><g id="Layer_1-2"><path class="cls-1" d="M210.15,10.1h12.68l5.1,21.26c1.13,4.89,2.34,12.54,2.34,12.54h.14s1.35-6.94,2.48-12.05l4.75-21.75h11.62l4.75,21.61c1.13,5.17,2.41,12.19,2.41,12.19h.14s1.42-7.65,2.55-12.68l5.03-21.12h12.61l-13.89,50.67h-12.26l-5.31-24.31c-.92-4.04-1.77-9.42-1.77-9.42h-.14s-.85,5.39-1.7,9.42l-5.31,24.31h-12.33l-13.89-50.67Z"/><path class="cls-1" d="M280.23,10.1h38.41v10.35h-25.86v9.07h22.18v9.78h-22.18v10.84h26.29v10.63h-38.83V10.1Z"/><path class="cls-1" d="M324.74,10.1h12.54v40.04h22.75v10.63h-35.29V10.1Z"/><path class="cls-1" d="M360.95,35.61c0-15.09,9.85-26.5,24.94-26.5,5.88,0,10.84,1.7,14.46,4.46,4.39,3.33,6.94,8.29,7.58,13.96h-12.54c-.64-4.54-4.18-8.01-9.57-8.01-8.22,0-12.12,6.87-12.12,16.08s4.68,16.01,12.19,16.01c5.6,0,9.28-3.54,9.85-8.43h12.54c-.35,5.03-2.62,9.64-6.09,12.97-3.9,3.76-9.07,5.74-16.23,5.74-14.88,0-25.01-11.12-25.01-26.29Z"/><path class="cls-1" d="M410.7,35.54c0-15.17,9.71-26.43,25.01-26.43s25.08,11.27,25.08,26.43-9.71,26.43-25.08,26.43-25.01-11.27-25.01-26.43ZM448.04,35.54c0-9.21-4.04-16.3-12.26-16.3s-12.33,7.09-12.33,16.3,4.18,16.23,12.33,16.23,12.26-7.02,12.26-16.23Z"/><path class="cls-1" d="M465.69,10.1h16.86l6.17,22.18c.92,3.19,2.91,11.55,2.91,11.55h.14s1.98-8.36,2.83-11.55l6.24-22.18h17.01v50.67h-11.48v-25.51c0-2.06.21-10.13.21-10.13h-.14s-1.77,7.58-2.34,9.42l-7.3,26.22h-10.35l-7.23-26.15c-.57-1.84-2.34-9.5-2.34-9.5h-.14s.21,8.15.21,10.2v25.44h-11.27V10.1Z"/><path class="cls-1" d="M524.79,10.1h38.41v10.35h-25.86v9.07h22.18v9.78h-22.18v10.84h26.29v10.63h-38.83V10.1Z"/><path class="cls-1" d="M592.75,20.73h-14.74v-10.63h42.16v10.63h-14.88v40.04h-12.54V20.73Z"/><path class="cls-1" d="M620.67,35.54c0-15.17,9.71-26.43,25.01-26.43s25.08,11.27,25.08,26.43-9.71,26.43-25.08,26.43-25.01-11.27-25.01-26.43ZM658.02,35.54c0-9.21-4.04-16.3-12.26-16.3s-12.33,7.09-12.33,16.3,4.18,16.23,12.33,16.23,12.26-7.02,12.26-16.23Z"/><path class="cls-1" d="M699.12,20.73h-14.74v-10.63h42.16v10.63h-14.88v40.04h-12.54V20.73Z"/><path class="cls-1" d="M731.23,10.1h12.54v19.2h17.79V10.1h12.54v50.67h-12.54v-21.12h-17.79v21.12h-12.54V10.1Z"/><path class="cls-1" d="M781.04,10.1h38.41v10.35h-25.86v9.07h22.18v9.78h-22.18v10.84h26.29v10.63h-38.83V10.1Z"/><path d="M4.81,108.36h17.47l20.81,35.23c1.08,1.96,4.81,8.93,4.81,8.93h.2s-.2-8.44-.2-10.89v-33.27h16.98v70.17h-17.47l-20.61-34.74c-1.18-1.87-5.01-9.42-5.01-9.42h-.2s.2,9.03.2,11.48v32.68H4.81v-70.17Z"/><path d="M71.25,153.31c0-15.02,10.5-26.5,25.81-26.5,7.16,0,12.86,2.36,17.18,6.28,5.99,5.5,8.93,14.23,8.83,24.44h-36.12c.98,6.77,4.71,10.99,11.29,10.99,4.22,0,6.97-1.87,8.34-5.01h15.6c-1.08,4.52-4.02,8.83-8.44,11.88-4.22,2.94-9.32,4.61-15.7,4.61-16.59,0-26.79-11.48-26.79-26.7ZM106.88,148.01c-.59-5.99-4.32-9.81-9.52-9.81-6.08,0-9.23,3.83-10.31,9.81h19.83Z"/><path d="M122.97,128.28h16.29l5.5,20.81c1.08,4.02,2.26,9.72,2.26,9.72h.2s1.18-5.79,2.26-10.01l5.3-20.51h13.54l5.5,20.51c1.08,4.32,2.36,10.11,2.36,10.11h.2s1.28-5.79,2.36-9.81l5.59-20.81h15.8l-15.41,50.25h-15.02l-5.89-22.77c-1.08-3.93-2.16-9.03-2.16-9.03h-.2s-1.18,5.1-2.26,9.03l-5.99,22.77h-14.82l-15.41-50.25Z"/><path d="M220.03,108.36h23.36l8.54,30.72c1.28,4.42,4.02,16,4.02,16h.2s2.75-11.58,3.93-16l8.64-30.72h23.55v70.17h-15.9v-35.33c0-2.85.29-14.03.29-14.03h-.2s-2.45,10.5-3.24,13.05l-10.11,36.31h-14.33l-10.01-36.22c-.79-2.55-3.24-13.15-3.24-13.15h-.2s.29,11.29.29,14.13v35.23h-15.6v-70.17Z"/><path d="M298.64,153.31c0-15.02,10.5-26.5,25.81-26.5,7.16,0,12.86,2.36,17.18,6.28,5.99,5.5,8.93,14.23,8.83,24.44h-36.12c.98,6.77,4.71,10.99,11.29,10.99,4.22,0,6.97-1.87,8.34-5.01h15.6c-1.08,4.52-4.02,8.83-8.44,11.88-4.22,2.94-9.32,4.61-15.7,4.61-16.59,0-26.79-11.48-26.79-26.7ZM334.26,148.01c-.59-5.99-4.32-9.81-9.52-9.81-6.08,0-9.23,3.83-10.31,9.81h19.83Z"/><path d="M353.59,153.41c0-15.7,9.03-26.6,21.98-26.6,7.07,0,11.09,2.94,14.03,7.16h.29v-25.62h16v70.17h-15.31v-6.77h-.2c-3.04,5.2-8.24,8.34-14.82,8.34-12.86,0-21.98-9.91-21.98-26.7ZM390.3,153.41c0-8.44-3.44-14.53-10.4-14.53-6.38,0-10.11,5.89-10.11,14.33s3.73,14.23,9.91,14.23c6.67,0,10.6-5.79,10.6-14.03Z"/><path d="M413.56,108.36h16v12.96h-16v-12.96ZM413.56,128.28h16v50.25h-16v-50.25Z"/><path d="M434.85,164.5c0-11.09,8.83-14.43,19.24-15.8,9.42-1.18,12.76-2.16,12.76-5.59,0-3.24-2.06-5.4-6.87-5.4-5.1,0-7.66,2.26-8.15,6.48h-14.72c.39-9.32,7.56-17.27,22.77-17.27,7.56,0,12.66,1.37,16.29,4.12,4.32,3.14,6.38,8.05,6.38,14.33v25.32c0,4.02.39,6.28,1.77,7.17v.69h-15.51c-.79-1.08-1.28-3.04-1.67-5.59h-.2c-2.95,4.22-7.36,6.87-14.92,6.87-10.01,0-17.18-5.4-17.18-15.31ZM467.24,160.57v-5.99c-2.06,1.08-5,1.86-8.24,2.65-6.18,1.38-8.74,2.95-8.74,6.77,0,4.02,2.95,5.59,6.87,5.59,5.99,0,10.11-3.63,10.11-9.03Z"/><path d="M506.49,108.36h29.93c19.43,0,32.49,14.03,32.49,35.53,0,12.37-4.32,22.28-12.17,28.27-5.5,4.12-12.56,6.38-21.39,6.38h-28.86v-70.17ZM534.07,163.91c11.38,0,17.27-7.16,17.27-20.02s-6.18-21-17.08-21h-10.4v41.02h10.21Z"/><path d="M572.44,153.31c0-15.02,10.5-26.5,25.81-26.5,7.17,0,12.86,2.36,17.18,6.28,5.99,5.5,8.93,14.23,8.83,24.44h-36.12c.98,6.77,4.71,10.99,11.29,10.99,4.22,0,6.97-1.87,8.34-5.01h15.6c-1.08,4.52-4.02,8.83-8.44,11.88-4.22,2.94-9.32,4.61-15.7,4.61-16.59,0-26.79-11.48-26.79-26.7ZM608.07,148.01c-.59-5.99-4.32-9.81-9.52-9.81-6.08,0-9.23,3.83-10.3,9.81h19.82Z"/><path d="M626.62,162.24h15.11c.59,5.01,3.93,7.46,9.23,7.46,4.81,0,7.85-1.77,7.85-5.01,0-4.51-6.08-5-12.76-6.18-8.73-1.47-18.06-3.83-18.06-15.6,0-10.6,9.81-16.1,21.69-16.1,14.23,0,21.89,6.18,22.67,16.1h-14.72c-.59-4.52-3.63-5.89-8.05-5.89-3.93,0-6.97,1.47-6.97,4.61,0,3.53,5.69,4.02,12.07,5.2,8.83,1.47,19.24,3.73,19.24,16.59,0,10.99-9.72,16.68-22.87,16.68-14.72,0-23.95-6.77-24.44-17.86Z"/><path d="M679.12,108.36h16v12.96h-16v-12.96ZM679.12,128.28h16v50.25h-16v-50.25Z"/><path d="M701.59,179.71h15.51c.88,2.65,3.53,4.91,8.83,4.91,6.77,0,9.62-3.53,9.62-9.62v-5h-.39c-2.95,3.34-6.77,5.79-12.86,5.79-11.29,0-21.79-8.44-21.79-23.85s8.64-25.12,21.1-25.12c6.67,0,11.19,2.65,14.13,6.87h.2v-5.4h15.31v45.34c0,7.56-2.65,13.05-6.67,16.68-4.42,3.93-10.99,5.59-18.45,5.59-13.84,0-22.97-5.69-24.54-16.19ZM736.24,151.35c0-6.77-3.53-12.46-10.21-12.46-5.99,0-9.91,4.91-9.91,12.56s3.93,12.46,9.91,12.46c6.97,0,10.21-5.5,10.21-12.56Z"/><path d="M758.91,128.28h15.41v6.87h.29c3.73-5.4,8.54-8.34,15.51-8.34,10.99,0,17.47,7.85,17.47,19.04v32.68h-16v-29.44c0-5.3-2.65-8.93-7.85-8.93s-8.83,4.42-8.83,10.6v27.77h-16v-50.25Z"/><path d="M828.19,143.69c0-20.91,13.64-36.71,34.55-36.71,8.15,0,15.02,2.36,20.02,6.18,6.08,4.61,9.62,11.48,10.5,19.33h-17.37c-.88-6.28-5.79-11.09-13.25-11.09-11.38,0-16.78,9.52-16.78,22.28s6.48,22.18,16.88,22.18c7.75,0,12.86-4.91,13.64-11.68h17.37c-.49,6.97-3.63,13.35-8.44,17.96-5.4,5.2-12.56,7.95-22.48,7.95-20.61,0-34.64-15.41-34.64-36.41Z"/><path d="M899.05,108.36h16.19v70.17h-16.19v-70.17Z"/><path d="M922.6,161.26v-32.98h15.9v29.64c0,5.5,2.45,8.54,7.56,8.54,5.5,0,8.83-4.12,8.83-10.11v-28.07h16v50.25h-15.31v-6.18h-.29c-3.63,4.91-8.05,7.65-15.02,7.65-11.58,0-17.67-7.56-17.67-18.75Z"/><path d="M994.05,172.15h-.2v6.38h-15.31v-70.17h16v25.62h.29c3.14-4.32,7.46-7.16,14.33-7.16,13.05,0,21.49,11.48,21.49,26.6,0,16.68-8.44,26.7-21.4,26.7-6.67,0-12.07-2.75-15.21-7.95ZM1014.46,153.31c0-8.64-3.44-14.33-9.91-14.33-7.07,0-10.5,6.18-10.5,14.43s4.12,14.03,10.7,14.03,9.72-5.4,9.72-14.13Z"/></g></svg>